<?xml version="1.0" encoding="iso-8859-1"?>
<!-- Generator: Adobe Illustrator 18.1.1, SVG Export Plug-In . SVG Version: 6.00 Build 0)  -->
<svg xmlns="http://www.w3.org/2000/svg" xmlns:xlink="http://www.w3.org/1999/xlink" version="1.1" id="Capa_1" x="0px" y="0px" viewBox="0 0 510.51 510.51" style="enable-background:new 0 0 510.51 510.51;" xml:space="preserve" width="512px" height="512px">
<g>
	<g>
		<path d="M510.51,167.399c0,14.742-2.09,29.286-6.273,43.629c-4.186,14.344-9.362,27.492-15.538,39.445    c-6.179,11.953-14.844,24.802-25.998,38.548c-11.158,13.746-21.816,25.801-31.978,36.158    c-10.161,10.359-23.208,22.512-39.146,36.457c-15.939,13.947-29.984,25.799-42.136,35.563    c-12.151,9.762-27.593,22.111-46.317,37.055c-18.726,14.943-34.265,27.393-46.617,37.354    c-13.547-12.352-31.676-27.689-54.387-46.02c-22.711-18.328-42.533-34.264-59.467-47.813    c-16.934-13.545-35.062-29.482-54.387-47.811c-19.325-18.328-35.162-35.461-47.514-51.398C28.4,262.631,18.34,244.9,10.57,225.377    C2.8,205.853-0.686,186.528,0.111,167.403c0-35.46,12.55-65.743,37.652-90.844s55.383-37.652,90.844-37.652    c13.148,0,26.597,3.781,40.343,11.352s25.302,15.936,34.665,25.1c9.363,9.164,18.627,19.722,27.791,31.676    s15.141,20.321,17.93,25.102c2.789,4.781,4.98,8.566,6.574,11.355l6.571-10.758c3.984-7.172,10.16-15.838,18.527-25.998    c8.367-10.16,17.631-20.42,27.791-30.779c10.16-10.359,22.113-19.125,35.859-26.297c13.747-7.172,27.194-10.758,40.343-10.758    c35.461,0,65.246,12.451,89.35,37.354C498.457,101.159,510.51,131.54,510.51,167.399z" fill="#D80027"/>
	</g>
</g>
<g>
</g>
<g>
</g>
<g>
</g>
<g>
</g>
<g>
</g>
<g>
</g>
<g>
</g>
<g>
</g>
<g>
</g>
<g>
</g>
<g>
</g>
<g>
</g>
<g>
</g>
<g>
</g>
<g>
</g>
</svg>
